<svg xmlns="http://www.w3.org/2000/svg" version="1.1" xmlns:xlink="http://www.w3.org/1999/xlink" xmlns:svgjs="http://svgjs.com/svgjs" width="512" height="512" x="0" y="0" viewBox="0 0 57 58" style="enable-background:new 0 0 512 512" xml:space="preserve" class=""><g><g xmlns="http://www.w3.org/2000/svg" id="Page-1" fill="none" fill-rule="evenodd"><g id="039---Riding-Success" fill-rule="nonzero"><path id="Shape" d="m19.38 37.519c.449.61 4.29 9.891 4.99 9.941 5.4 4.16 13.94 1.7 17.25-3.86 1.6110921-2.574963 2.4380452-5.563113 2.38-8.6h-2.95c-.3824923-.001757-.7304753-.221544-.8964082-.5661738s-.1207435-.7537221.1164082-1.0538262l7.45-9.02c.192991-.2290418.4778422-.3603985.7773449-.3584663.2995028.0019323.5826354.1369535.7726551.3684663l7.33 9.01c.3026913.2484429.4134855.6621056.2754919 1.0285803-.1379935.3664746-.4941106.6043251-.8854919.5914197h-2.99c.3678131 5.067267-1.0044634 10.1083545-3.89 14.29-1.6646927 2.2503156-3.754021 4.1527934-6.15 5.6-3.3705307 1.9578625-7.1829535 3.0279559-11.08 3.11-12.15 0-20.44-10.13-25.14-21.38-1.5368446-3.7264974-2.77735834-7.5684119-3.71-11.49l-.01-.03c-.27-1.14-.53-2.33-.77-3.55-1.16321336-6.2338198-1.91483811-12.53744595-2.25-18.87v-.13c.00919232-1.36567374 1.0864597-2.48485535 2.45078847-2.54614356 1.36432878-.06128821 2.53760609.95679472 2.66921153 2.31614356.5683682 5.87460097 1.54742967 11.7021887 2.93 17.44z" fill="#ff5364" data-original="#ff5364"></path><path id="Shape" d="m19.77 13.96c-.1815101.229944-.3822322.4440476-.6.64-1.4736543 1.3052591-3.5287935 1.7315102-5.4 1.12-.4866732-.1558843-.9481488-.3815694-1.37-.67-1.8737193-1.2742963-2.77413789-3.567319-2.2681364-5.77607824.5060016-2.20875928 2.3148445-3.88112108 4.5564391-4.21264593s4.4570854.74565056 5.5807771 2.7133833.9255639 4.42322697-.4990798 6.18534087z" fill="#fdd7ad" data-original="#fdd7ad"></path><path id="Shape" d="m35.5 41.39c-.07.04-.15.09-.21.12-1.1332741.6009247-2.5374645.2466367-3.25-.82l-5.37-8.15-5.08.88-2.17.38.07.1 7.06 9.58c.3957065.5328959.5632537 1.2012782.4657104 1.8578198-.0975433.6565417-.4521694 1.2473439-.9857104 1.6421802-.2925453.206782-.621716.3560965-.97.44-.2266558.0481346-.4593003.0616212-.69.04-.7301196-.0480077-1.4025589-.4134638-1.84-1l-8.8-11.94-1.2-1.64c-.01 0-.02.01-.03.01-.05.02-.1.03-.15.05-1.0004428.2530073-2.0263246-.3101364-2.35-1.29l-3.58-9c-.27709251-.8392658.02744945-1.7610128.75-2.27l.88-.62 1.86-1.31-.01-.01 3.87-2.72c1.8712065.6115102 3.9263457.1852591 5.4-1.12l4.36 2.23 5.97-5.39c.550189-.4573 1.3025512-.5863402 1.9736791-.3385125s1.1590611.8348723 1.28 1.54c.1209389.7051276-.1434901 1.4212125-.6936791 1.8785125l-6.99 6.23c-.6161754.5110942-1.477758.6055142-2.19.24l-3.84-1.96 1.6 9.48 6.78-1.17c.9806916-.1789735 1.9732625.246414 2.52 1.08l6.27 9.51c.3666972.55238.497952 1.2281963.3646766 1.8776793-.1332755.649483-.5200742 1.2189935-1.0746766 1.5823207z" fill="#3b97d3" data-original="#3b97d3"></path><path id="Shape" d="m53.131 13.258.869 4.979c.0411711.2442131-.0593542.4906999-.2595718.6364668s-.4656659.1657243-.6854282.0515332l-4.555-2.355-4.553 2.355c-.2199082.1153277-.486197.0959491-.6870913-.0500016-.2008942-.1459506-.3016243-.393213-.2599087-.6379984l.867-4.979-3.667-3.518c-.1799899-.17210915-.2456239-.43203261-.1689208-.66895996s.2822146-.40906994.5289208-.44304004l5.073-.728 2.282-4.54c.1114802-.22042676.3374863-.35939088.5845-.35939088s.4730198.13896412.5845.35939088l2.272 4.54 5.083.726c.2466774.03440953.4520025.20675039.5286529.44372816.0766505.23697777.0111469.49691819-.1686529.66927184z" fill="#f0c419" data-original="#f0c419"></path><g fill="#2980ba"><path id="Shape" d="m13.73 34.52-1.2-1.64c-.01 0-.02.01-.03.01.0580716-.0308097.1182169-.057541.18-.08.5005625-.1793371.7667985-.7251209.6-1.23l-3.21-7.87c-.17193538-.4329514-.0277306-.9273679.35-1.2l2.24-1.57c.4504485-.316067 1.0716174-.2088148 1.39.24.3193894.4530852.2120617 1.0791635-.24 1.4l-1.58 1.11 2.93 7.19c.492448 1.4000752-.1162548 2.9495006-1.43 3.64z" fill="#2980ba" data-original="#2980ba"></path><path id="Shape" d="m21.59 33.42-2.17.38-2.06-2.78c-.3286094-.4445892-.2345892-1.0713906.21-1.4s1.0713906-.2345892 1.4.21l2.5 3.37c.0496295.0676553.0899873.1416446.12.22z" fill="#2980ba" data-original="#2980ba"></path></g></g></g></g></svg>