<svg xmlns="http://www.w3.org/2000/svg" version="1.1" xmlns:xlink="http://www.w3.org/1999/xlink" xmlns:svgjs="http://svgjs.com/svgjs" width="512" height="512" x="0" y="0" viewBox="0 0 512 512" style="enable-background:new 0 0 512 512" xml:space="preserve" class=""><g><g xmlns="http://www.w3.org/2000/svg"><g><path id="XMLID_1135_" d="m366.479 359.018h62.471c40.026 0 72.473 32.447 72.473 72.473v70.509h-207.418v-70.509c0-40.026 32.448-72.473 72.474-72.473z" fill="#ffda8f" data-original="#ffda8f"></path><path id="XMLID_1134_" d="m397.714 249.015c25.911 0 46.916 21.005 46.916 46.916v16.172c0 25.911-21.005 46.916-46.916 46.916-25.911 0-46.916-21.005-46.916-46.916v-16.172c0-25.911 21.005-46.916 46.916-46.916z" fill="#f2b394" data-original="#f2b394"></path></g><g><path id="XMLID_1159_" d="m145.521 359.018h-62.471c-40.026 0-72.473 32.447-72.473 72.473v70.509h207.418v-70.509c0-40.026-32.448-72.473-72.474-72.473z" fill="#66e0f7" data-original="#66e0f7"></path><path id="XMLID_1158_" d="m114.286 249.015c-25.911 0-46.916 21.005-46.916 46.916v16.172c0 25.911 21.005 46.916 46.916 46.916 25.911 0 46.916-21.005 46.916-46.916v-16.172c0-25.911-21.005-46.916-46.916-46.916z" fill="#f2b394" data-original="#f2b394"></path></g><g><g><path d="m383.864 502v-90.93c0-21.727-15.594-40.454-37.308-44.808l-63.212-12.672h-55.842l-63.212 12.672c-21.715 4.353-37.308 23.081-37.308 44.808v90.93z" fill="#ff7d97" data-original="#ff7d97"></path><g fill="#ffd0c7"><path d="m256 192.762h-1.154c-31.787 0-57.555 25.768-57.555 57.555v26.431c0 31.787 25.768 57.555 57.555 57.555h1.154c31.787 0 57.555-25.768 57.555-57.555v-26.431c0-31.786-25.768-57.555-57.555-57.555z" fill="#ffd0c7" data-original="#ffd0c7"></path><path d="m255.691 382.889h-.536c-14.766 0-26.737-11.971-26.737-26.737v-26.206h54.01v26.206c0 14.766-11.97 26.737-26.737 26.737z" fill="#ffd0c7" data-original="#ffd0c7"></path></g></g></g><path d="m322.812 175.405c-7.886 3.668-16.479 5.569-25.177 5.569h-51.42c-27.02 0-48.924 21.904-48.924 48.924v22.102h96.465c16.047 0 29.056-13.009 29.056-29.056z" fill="#cc9081" data-original="#cc9081"></path><g><path d="m440.29 349.816c8.913-10.05 14.34-23.257 14.34-37.714v-16.172c0-31.384-25.532-56.916-56.916-56.916-6.4 0-12.55 1.078-18.297 3.035v-89.875c0-5.522-4.478-10-10-10h-7.741l34.678-54.323 34.678 54.323h-7.614c-5.522 0-10 4.478-10 10v36.269c0 5.522 4.478 10 10 10s10-4.478 10-10v-26.269h15.861c3.652 0 7.015-1.991 8.77-5.194s1.625-7.107-.341-10.187l-52.925-82.908c-1.837-2.878-5.015-4.619-8.429-4.619s-6.592 1.741-8.429 4.619l-52.925 82.908c-1.966 3.079-2.096 6.983-.341 10.187s5.117 5.194 8.77 5.194h15.988v91.689c-11.433 10.417-18.619 25.418-18.619 42.067v16.172c0 14.451 5.424 27.654 14.33 37.702-6.006.826-11.88 2.318-17.575 4.454l-45.125-9.046v-11.616c18.703-12.027 31.128-33.006 31.128-56.847v-28.6c5.767-6.808 9.256-15.605 9.256-25.205v-47.54c0-3.416-1.743-6.595-4.623-8.432-2.879-1.837-6.497-2.077-9.596-.635-6.519 3.032-13.766 4.636-20.958 4.636h-5.212v-68.066h15.861c3.652 0 7.015-1.991 8.77-5.194s1.625-7.107-.341-10.187l-52.925-82.907c-1.837-2.878-5.015-4.619-8.429-4.619s-6.592 1.741-8.429 4.619l-52.925 82.907c-1.966 3.079-2.096 6.983-.341 10.187s5.117 5.194 8.77 5.194h15.988v35.445c0 5.522 4.478 10 10 10s10-4.478 10-10v-45.445c0-5.522-4.478-10-10-10h-7.741l34.678-54.322 34.678 54.322h-7.614c-5.522 0-10 4.478-10 10v78.066h-26.207c-32.491 0-58.925 26.433-58.925 58.924v46.852c0 23.84 12.424 44.82 31.127 56.847v11.616l-44.378 8.896c-5.567-2.054-11.302-3.502-17.163-4.309 8.904-10.048 14.326-23.248 14.326-37.697v-16.172c0-17.258-7.731-32.735-19.9-43.182v-90.575h15.988c3.652 0 7.015-1.991 8.77-5.194s1.625-7.107-.341-10.187l-52.925-82.908c-1.837-2.878-5.015-4.619-8.429-4.619s-6.592 1.741-8.429 4.619l-52.925 82.908c-1.966 3.079-2.096 6.983-.341 10.187s5.117 5.194 8.77 5.194h15.861v26.269c0 5.522 4.478 10 10 10s10-4.478 10-10v-36.269c0-5.522-4.478-10-10-10h-7.614l34.678-54.323 34.678 54.323h-7.741c-5.522 0-10 4.478-10 10v89.441c-5.375-1.688-11.091-2.6-17.016-2.6-31.384 0-56.916 25.532-56.916 56.916v16.172c0 14.457 5.427 27.664 14.34 37.714-40.127 5.545-71.133 40.047-71.133 81.675v70.509c0 5.522 4.478 10 10 10h199.846c5.522 0 10-4.478 10-10s-4.478-10-10-10h-73.441v-80.931c0-16.881 12.312-31.602 29.274-35.003l53.297-10.684c3.249 12.62 13.193 22.629 25.87 26.142v21.744c0 5.522 4.478 10 10 10s10-4.478 10-10v-21.744c12.677-3.513 22.622-13.522 25.87-26.142l53.297 10.684c16.963 3.401 29.274 18.122 29.274 35.003v80.931h-73.441c-5.522 0-10 4.478-10 10s4.478 10 10 10h201c5.522 0 10-4.478 10-10v-70.509c-.001-41.627-31.007-76.129-71.134-81.675zm-5.66-53.885v16.172c0 20.355-16.561 36.915-36.916 36.915s-36.916-16.56-36.916-36.915v-16.172c0-20.355 16.561-36.916 36.916-36.916s36.916 16.56 36.916 36.916zm-227.339-66.034c0-21.463 17.462-38.924 38.925-38.924h51.419c5.086 0 10.192-.571 15.177-1.684v33.654c0 10.507-8.548 19.056-19.056 19.056h-86.465zm0 32.103h86.465c3.383 0 6.667-.434 9.8-1.246v15.995c0 26.222-21.91 47.555-48.133 47.555-26.222 0-48.132-21.333-48.132-47.555zm-129.921 33.931c0-20.355 16.561-36.916 36.916-36.916s36.916 16.561 36.916 36.916v16.172c0 20.355-16.561 36.915-36.916 36.915s-36.916-16.56-36.916-36.915zm-56.793 135.56c0-34.448 28.025-62.474 62.474-62.474h53.477c-12.056 10.335-19.546 25.523-19.546 42.052v80.931h-96.405zm234.846-58.602c-9.377 0-17.005-7.39-17.005-16.472v-14.143c5.262 1.32 11.34 2.03 17.005 2.03 5.665 0 11.743-.71 17.005-2.03v14.143c0 9.082-7.628 16.472-17.005 16.472zm236 119.111h-97.559v-80.931c0-16.529-7.49-31.717-19.546-42.052h54.631c34.448 0 62.474 28.025 62.474 62.474z" fill="#000000" data-original="#000000"></path><circle cx="255.42" cy="501.997" r="10" fill="#000000" data-original="#000000"></circle></g></g></g></svg>