<svg xmlns="http://www.w3.org/2000/svg" version="1.1" xmlns:xlink="http://www.w3.org/1999/xlink" xmlns:svgjs="http://svgjs.com/svgjs" width="512" height="512" x="0" y="0" viewBox="0 0 791.454 791.454" style="enable-background:new 0 0 512 512" xml:space="preserve" class=""><g><g><g id="Vrstva_x0020_1_29_"><path d="m202.621 0h264.884l224.238 233.828v454.717c0 56.783-46.126 102.909-103.061 102.909h-386.06c-56.783 0-102.909-46.126-102.909-102.909v-585.636c-.001-56.783 46.125-102.909 102.908-102.909z" fill="#0263d1" data-original="#0263d1" class=""></path><g fill="#fff"><path clip-rule="evenodd" d="m467.2 0v232.002h224.542z" fill-rule="evenodd" opacity=".302" fill="#ffffff" data-original="#ffffff"></path><path d="m500.082 411.788h-208.71c-9.591 0-17.507-7.764-17.507-17.354s7.916-17.354 17.507-17.354h208.71c9.591 0 17.354 7.764 17.354 17.354s-7.763 17.354-17.354 17.354zm-69.57 208.71h-139.14c-9.591 0-17.507-7.764-17.507-17.354s7.916-17.354 17.507-17.354h139.14c9.591 0 17.354 7.764 17.354 17.354s-7.763 17.354-17.354 17.354zm69.57-69.57h-208.71c-9.591 0-17.507-7.764-17.507-17.354s7.916-17.354 17.507-17.354h208.71c9.591 0 17.354 7.764 17.354 17.354s-7.763 17.354-17.354 17.354zm0-69.57h-208.71c-9.591 0-17.507-7.764-17.507-17.354s7.916-17.354 17.507-17.354h208.71c9.591 0 17.354 7.764 17.354 17.354s-7.763 17.354-17.354 17.354z" fill="#ffffff" data-original="#ffffff"></path></g></g></g></g></svg>