<svg xmlns="http://www.w3.org/2000/svg" viewBox="0 0 887.94 157.96"><defs><style>.cls-1,.cls-2{fill:#ec1c24;}.cls-2{font-size:92.2px;font-family:MinionConceptItalic-BoldItalic, Minion Variable Concept;font-weight:700;font-style:italic;}.cls-3{letter-spacing:0.02em;}.cls-4{letter-spacing:0.03em;}.cls-5{letter-spacing:0em;}.cls-6{letter-spacing:0.02em;}.cls-7{letter-spacing:0.01em;}.cls-8{letter-spacing:0.01em;}.cls-9{letter-spacing:0.02em;}</style></defs><g id="Layer_2" data-name="Layer 2"><g id="Layer_1-2" data-name="Layer 1"><path class="cls-1" d="M79,0a79,79,0,1,0,79,79A79.08,79.08,0,0,0,79,0Zm0,152.51A73.53,73.53,0,1,1,152.5,79,73.6,73.6,0,0,1,79,152.51Z"/><path class="cls-1" d="M78.16,3.49,75.74,7.78,13.05,118.72H144.89Zm.07,11.39c4.36,7.56,52.49,90.68,56.85,98.17H22.76C27,105.61,73.91,22.49,78.23,14.88Z"/><path class="cls-1" d="M63.75,52.93v1.74c5.06.14,9,.22,9,5v38.9c0,2.15,0,6.07-5.8,6.07-2.49,0-3.93-1-3.93-2.19,0-1.92,2.41-1.81,2.41-4.53C65.43,94,61,92.65,59,92.65c-2.6,0-6.34,1.53-6.34,5.4,0,1.17,1.71,8.86,15.09,8.86,9.23,0,19.5-2.66,19.5-15.29V61.1c0-6.07,2.85-6.14,8-6.43V52.93Z"/><text class="cls-2" transform="translate(193.96 107.11)"><tspan class="cls-3">J</tspan><tspan class="cls-4" x="34.11" y="0">A</tspan><tspan class="cls-5" x="91" y="0">M</tspan><tspan class="cls-6" x="171.31" y="0">U</tspan><tspan class="cls-4" x="237.14" y="0">N</tspan><tspan x="305.27" y="0">A G</tspan><tspan class="cls-7" x="444.95" y="0">R</tspan><tspan class="cls-8" x="503.68" y="0">O</tspan><tspan class="cls-9" x="571.35" y="0">U</tspan><tspan x="637.18" y="0">P</tspan></text></g></g></svg>